# xmcd
#
# Track frame offsets: 
#        150
#        13659
#        29768
#        51317
#        64698
#        83981
#        101600
#        126384
#        137331
#        152828
#        166674
#        179343
#        196262
#        211096
#        229554
#        244783
#        267801
#
# Disc length: 3733 seconds
#
# Revision: 0
# Processed by: cddbd v1.5.2PL0 Copyright (c) Steve Scherf et al.
# Submitted via: ExactAudioCopy v0.99pb3
#
DISCID=e20e9311
DTITLE=Fred Kaplan - Hold My Mule
DYEAR=2012
DGENRE=Blues
TTITLE0=Barn Burner
TTITLE1=BBQ Boogie
TTITLE2=Bunk's Blues
TTITLE3=Jambalaya Jump
TTITLE4=The Swag
TTITLE5=Partida Walk
TTITLE6=Second Chance Blues
TTITLE7=Bouncin'
TTITLE8=Jalapeno Hop
TTITLE9=Ready Freddie
TTITLE10=Souled Out
TTITLE11=Mr. Downtime
TTITLE12=Tropical Ivories
TTITLE13=Love From Above
TTITLE14=Strollin'
TTITLE15=Nubie's Blues
TTITLE16=Crawlin' To N'Awlins
EXTD=
EXTT0=
EXTT1=
EXTT2=
EXTT3=
EXTT4=
EXTT5=
EXTT6=
EXTT7=
EXTT8=
EXTT9=
EXTT10=
EXTT11=
EXTT12=
EXTT13=
EXTT14=
EXTT15=
EXTT16=
PLAYORDER=
